<?xml version="1.0" encoding="utf-8"?>
<!-- Generator: Adobe Illustrator 15.1.0, SVG Export Plug-In . SVG Version: 6.00 Build 0)  -->
<!DOCTYPE svg PUBLIC "-//W3C//DTD SVG 1.1//EN" "http://www.w3.org/Graphics/SVG/1.1/DTD/svg11.dtd">
<svg version="1.1" id="Layer_1" xmlns="http://www.w3.org/2000/svg" xmlns:xlink="http://www.w3.org/1999/xlink" x="0px" y="0px"
	 width="595.28px" height="841.89px" viewBox="0 0 595.28 841.89" enable-background="new 0 0 595.28 841.89" xml:space="preserve">
<ellipse fill-rule="evenodd" clip-rule="evenodd" fill="#193153" stroke="#F9FCFF" stroke-width="2" cx="296.04" cy="368" rx="266.038" ry="265.504"/>
<ellipse fill-rule="evenodd" clip-rule="evenodd" fill="#195FAB" cx="296.5" cy="370" rx="248.5" ry="248"/>
<ellipse fill-rule="evenodd" clip-rule="evenodd" fill="#EDF1F4" stroke="#F9FCFF" stroke-width="2" cx="269.871" cy="198.259" rx="59.88" ry="59.76"/>
<path fill-rule="evenodd" clip-rule="evenodd" fill="#010102" d="M295.102,435.59c11.508,5.158,24.784,8.549,37,13
	c-6.974-0.431-24.678-7.27-35-11c-20.801,8.533-35.354,23.313-53,35c-3.724,9.59,6.741,14.988,4,17c-4.081-3.252-10.063-4.604-15-7
	c-7.932,2.104-9.519,9.261-17,13c-11.466,5.73-29.377,0.148-34,12c0.437,18.563,10.893,27.107,16,41
	c12.604,5.248,27.764,15.076,44,12c4.621-0.875,8.418-7.464,15-10c3.232-1.246,7.242-0.812,10-2c8.359-3.602,12.999-11.79,16-17
	c4.386-1.053,3.284,3.382,7,3c17.183-9.817,33.144-20.856,51-30c2.092-21.574,11.433-35.9,17-54c6.925-3.408,13.74-6.927,20-11
	c-1.37,4.311-12.007,7.982-17,12c-4.922,17.078-11.711,32.289-13,53c29.616-2.004,63.472-5.528,92,0c-15.089,1.887-29.48,1.361-44,2
	c-15.711,0.69-34.596,0.939-49,5c-13.06,3.682-32.005,17.639-45,25c-15.591,8.832-28.924,19.827-41,29
	c1.224,9.442,3.768,17.565,6,26c37.101-3.213,54.719-39.581,92-41c16.421-0.625,32.868,7.146,53,6c-23.838,5.663-42.869-4.831-74,9
	c4.122,5.988,13.798,6.93,21,9c7.793,2.24,15.49,4.504,23,6c-15.431,2.353-29.048-6.05-43-5c-10.487,0.789-29.719,10.553-41,15
	c-13.493,5.319-25.72,12.867-39,14c-5.64-9.36-7.927-22.073-11-34c-19.278-5.389-39.257-10.076-59-15
	c-6.867-10.293-9.025-24.153-16-35c-3.917-6.09-21.859-24.335-30-27c-10.243-3.354-23.422-1.589-35-3
	c-11.004-1.341-21.932-3.627-34-4c-22.224-38.792-37.172-97.404-27-159c3.937,12.73,9.799,23.535,22,28
	c20.558-0.706,39.423,5.51,57,2c14.439-2.883,21.632-14.256,33-19c4.333,0.333,3.795,5.538,6,8c25.519-5.716,37.971-2.788,70-10
	c-4.238-22.958,40.622,86.146,32,82c-3.242,9.758-5.594,20.405-9,30c11.044,6.144,13.051-4.46,19-9
	c11.954-9.122,31.148-15.027,43-16C310.468,426.29,302.289,430.444,295.102,435.59z M213.102,346.59
	c-1.924,9.989,16.791,17.624,30,14c-1.52-8.146-6.972-12.361-7-22C225.411,338.287,214.349,340.115,213.102,346.59z M232.102,368.59
	c-12.141-2.765-20.727-15.87-30-18c-7.564-1.738-18.291-0.714-25,0c-20.917,2.228-42.435,14.596-61,16
	c-16.159,1.222-27.875-7.435-46-5c-1.36,3.64-7.09,2.91-8,7c-0.78,17.269,11.683,32.805,13,50c1.071,13.979-7.448,32.671,4,43
	c10.085,0.748,15.5-5.945,24-9c22.027-7.916,46.938-3.773,66-15c5.734-3.377,8.93-11.011,14-16c10.479-10.313,29.568-11.698,42-19
	c-13.002,14.998-44.013,11.987-46,38c-3,0-6,0-9,0c-16.013,10.653-41.876,11.457-64,16c-4.599,5.829-1.74,12.791,1,19
	c12.094,0.903,19.039,7.939,32,8c9.94,0.046,18.886-8.161,27-7c6.063,0.868,8.309,7.598,14,9c9.214-6.331,22.055-2.028,32-4
	c30.082-5.963,43.177-41.131,53-66c-4.796-11.537-8.156-24.511-8-41C250.07,365.781,242.82,371.031,232.102,368.59z"/>
<path fill-rule="evenodd" clip-rule="evenodd" fill="#010102" d="M440.884,348.393c4.69,0.679,12.182,3.5,16.713,7.422
	c2.256,1.953,2.793,6.221,7.338,4.048c-1.119-3.901-1.793-8.195-2.844-12.157c-3.53,1.438,16.998-40.866,14.748-31.837
	c12.563,3.658,17.591,2.799,27.603,5.7c0.938-0.925,0.852-3.009,2.583-3.035c4.406,2.167,6.988,6.868,12.662,8.371
	c6.906,1.829,14.564-0.181,22.727,0.605c4.963-1.477,7.562-5.631,9.44-10.599c2.532,24.756-4.854,47.706-14.65,62.593
	c-4.812-0.149-9.215,0.492-13.625,0.755c-4.641,0.276-9.842-0.749-13.998,0.333c-3.305,0.86-10.892,7.678-12.6,10.004
	c-3.041,4.144-4.241,9.605-7.226,13.531c-7.976,1.473-16.039,2.846-23.841,4.517c-1.517,4.669-2.738,9.672-5.213,13.256
	c-5.255-0.775-9.935-4.08-15.172-6.528c-4.378-2.047-11.789-6.404-15.942-6.977c-5.524-0.76-11.148,2.249-17.23,0.933
	c3.024-0.41,6.143-1.123,9.299-1.822c2.916-0.646,6.789-0.783,8.575-3.064c-12.045-6.268-19.874-2.561-29.219-5.4
	c7.98,0.951,14.715-1.736,21.234-1.083c14.796,1.48,20.911,16.383,35.592,18.573c1.097-3.301,2.308-6.47,3.026-10.197
	c-4.579-3.946-9.613-8.648-15.599-12.546c-4.989-3.248-12.183-9.266-17.288-11.052c-5.63-1.969-13.138-2.533-19.371-3.193
	c-5.76-0.612-11.499-0.756-17.455-1.878c11.485-1.498,24.868,0.736,36.601,2.262c-0.003-8.271-2.33-14.489-3.868-21.405
	c-1.888-1.722-6.03-3.444-6.469-5.192c2.391,1.775,5.015,3.342,7.687,4.868c1.77,7.337,5.134,13.267,5.436,21.901
	c6.88,4.077,12.957,8.86,19.553,13.188c1.468,0.244,1.14-1.547,2.858-1.021c1.065,2.146,2.711,5.519,5.947,7.158
	c1.068,0.54,2.674,0.465,3.929,1.042c2.556,1.169,3.905,3.884,5.723,4.347c6.384,1.623,12.656-1.914,17.8-3.692
	c2.373-5.401,6.744-8.543,7.374-15.918c-1.548-4.829-8.812-3.048-13.232-5.61c-2.884-1.672-3.339-4.558-6.443-5.59
	c-2.023,0.832-4.437,1.223-6.14,2.417c-1.041-0.868,3.255-2.759,2.01-6.665c-6.733-5.083-12.161-11.321-20.227-15.228
	c-4.197,1.23-11.409,3.516-14.193,3.516c4.968-1.471,10.334-2.493,15.039-4.263C447.801,351.558,444.649,349.704,440.884,348.393z
	 M476.392,316.642c-0.248,3.834-2.521,5.376-3.325,8.58c5.165,1.767,12.799-0.811,12.279-4.832
	C485.008,317.783,480.652,316.785,476.392,316.642z M467.151,330.448c-0.343,6.563-1.999,11.643-4.191,16.115
	c3.298,10.135,7.643,24.449,19.465,27.56c3.907,1.029,9.122-0.367,12.632,2.378c2.299-0.418,3.356-3.04,5.791-3.237
	c3.257-0.262,6.614,3.223,10.569,3.449c5.158,0.294,8.095-2.333,12.928-2.396c1.242-2.403,2.551-5.102,0.865-7.534
	c-8.69-2.351-18.96-3.307-25.068-7.939c-1.194-0.074-2.387-0.148-3.581-0.222c-0.15-10.397-12.562-9.962-17.366-16.249
	c4.767,3.211,12.326,4.231,16.242,8.591c1.895,2.11,2.979,5.226,5.177,6.71c7.307,4.935,17.319,3.899,25.888,7.59
	c3.307,1.425,5.297,4.22,9.327,4.17c4.809-3.828,1.879-11.474,2.649-17.009c0.946-6.808,6.286-12.683,6.401-19.573
	c-0.263-1.649-2.56-1.5-3.012-2.981c-7.15-1.414-12.024,1.742-18.424,0.858c-7.351-1.015-15.607-6.464-23.875-7.865
	c-2.65-0.449-6.893-1.119-9.945-0.615c-3.742,0.62-7.479,5.623-12.378,6.424C472.921,329.383,470.166,327.115,467.151,330.448z"/>
<path fill-rule="evenodd" clip-rule="evenodd" fill="#010102" d="M440.385,440.221c4.69,0.68,12.182,3.5,16.713,7.423
	c2.256,1.953,2.793,6.221,7.338,4.048c-1.119-3.9-1.793-8.194-2.844-12.156c-3.53,1.438,16.998-40.866,14.748-31.837
	c12.563,3.658,17.591,2.799,27.603,5.7c0.938-0.925,0.852-3.009,2.583-3.035c4.406,2.167,6.988,6.868,12.662,8.371
	c6.906,1.829,14.564-0.181,22.727,0.605c4.963-1.477,7.562-5.631,9.44-10.599c2.532,24.756-4.854,47.706-14.65,62.594
	c-4.812-0.149-9.215,0.492-13.625,0.755c-4.641,0.276-9.842-0.749-13.998,0.333c-3.305,0.86-10.892,7.678-12.6,10.004
	c-3.041,4.145-4.241,9.605-7.226,13.531c-7.976,1.473-16.039,2.846-23.841,4.517c-1.517,4.669-2.738,9.672-5.213,13.256
	c-5.255-0.775-9.935-4.079-15.172-6.528c-4.378-2.047-11.789-6.404-15.942-6.977c-5.524-0.76-11.148,2.249-17.23,0.934
	c3.024-0.41,6.143-1.123,9.299-1.822c2.916-0.646,6.789-0.783,8.575-3.064c-12.045-6.268-19.874-2.561-29.219-5.399
	c7.98,0.95,14.715-1.735,21.234-1.083c14.796,1.479,20.911,16.383,35.592,18.572c1.097-3.301,2.308-6.469,3.026-10.196
	c-4.579-3.946-9.613-8.648-15.599-12.546c-4.989-3.248-12.183-9.266-17.288-11.052c-5.63-1.97-13.138-2.533-19.371-3.193
	c-5.76-0.612-11.499-0.757-17.455-1.878c11.485-1.498,24.868,0.736,36.601,2.262c-0.003-8.271-2.33-14.489-3.868-21.404
	c-1.888-1.723-6.03-3.445-6.469-5.193c2.391,1.775,5.015,3.342,7.687,4.869c1.77,7.337,5.134,13.266,5.436,21.9
	c6.88,4.077,12.957,8.861,19.553,13.189c1.468,0.243,1.14-1.548,2.858-1.021c1.065,2.146,2.711,5.518,5.947,7.157
	c1.068,0.54,2.674,0.466,3.929,1.042c2.556,1.169,3.905,3.884,5.723,4.346c6.384,1.623,12.656-1.914,17.8-3.691
	c2.373-5.401,6.744-8.543,7.374-15.918c-1.548-4.829-8.812-3.049-13.232-5.61c-2.884-1.672-3.339-4.558-6.443-5.591
	c-2.023,0.832-4.437,1.223-6.14,2.417c-1.041-0.868,3.255-2.759,2.01-6.665c-6.733-5.084-12.161-11.32-20.227-15.228
	c-4.197,1.23-11.409,3.517-14.193,3.517c4.968-1.471,10.334-2.494,15.039-4.264C447.302,443.386,444.15,441.531,440.385,440.221z
	 M475.893,408.47c-0.248,3.834-2.521,5.376-3.325,8.58c5.165,1.767,12.799-0.811,12.279-4.832
	C484.509,409.611,480.153,408.613,475.893,408.47z M466.652,422.276c-0.343,6.563-1.999,11.643-4.191,16.114
	c3.298,10.135,7.643,24.449,19.465,27.561c3.907,1.029,9.122-0.367,12.632,2.379c2.299-0.418,3.356-3.041,5.791-3.237
	c3.257-0.263,6.614,3.223,10.569,3.448c5.158,0.295,8.095-2.333,12.928-2.396c1.242-2.403,2.551-5.103,0.865-7.534
	c-8.69-2.352-18.96-3.307-25.068-7.939c-1.194-0.074-2.387-0.147-3.581-0.221c-0.15-10.398-12.562-9.963-17.366-16.249
	c4.767,3.211,12.326,4.231,16.242,8.591c1.895,2.11,2.979,5.227,5.177,6.711c7.307,4.935,17.319,3.898,25.888,7.59
	c3.307,1.425,5.297,4.221,9.327,4.17c4.809-3.827,1.879-11.473,2.649-17.008c0.946-6.809,6.286-12.684,6.401-19.573
	c-0.263-1.649-2.56-1.5-3.012-2.981c-7.15-1.414-12.024,1.742-18.424,0.858c-7.351-1.015-15.607-6.464-23.875-7.865
	c-2.65-0.449-6.893-1.119-9.945-0.615c-3.742,0.62-7.479,5.623-12.378,6.424C472.422,421.211,469.667,418.943,466.652,422.276z"/>
<path fill-rule="evenodd" clip-rule="evenodd" fill="#010102" d="M240.167,213.333c0,0,8.5,4,24.5-0.5c0,0,15.5-1,28,2
	c0,0,13.5,2,18-1.5c0,0-3,24,0,38.5c0,0,0.5,15-1.5,20.5c0,0,18.5,21.5,10.5,67.5c0,0-2,22.5-17.5,33c0,0-5,5-1.5,15.5
	c0,0-1.5,13-6.5,19.5c0,0-4,10.5-4,13c0,0-24,8.5-30.5-3c0,0-5.5-11.5-6.5-34.5c0,0,4.5-6-7.5-11.5c0,0-20.5-18.5-14.5-74
	c2.985-30.031,9.881-20.182,11.834-39.001C244.938,240.153,239.713,215.15,240.167,213.333z"/>
</svg>
