<?xml version="1.0" encoding="utf-8"?>
<!-- Generator: Adobe Illustrator 15.1.0, SVG Export Plug-In . SVG Version: 6.00 Build 0)  -->
<!DOCTYPE svg PUBLIC "-//W3C//DTD SVG 1.1//EN" "http://www.w3.org/Graphics/SVG/1.1/DTD/svg11.dtd">
<svg version="1.1" id="Layer_1" xmlns="http://www.w3.org/2000/svg" xmlns:xlink="http://www.w3.org/1999/xlink" x="0px" y="0px"
	 width="595.28px" height="841.89px" viewBox="0 0 595.28 841.89" enable-background="new 0 0 595.28 841.89" xml:space="preserve">
<g>
	<ellipse fill="#F8F3C8" cx="276.601" cy="425" rx="252.684" ry="240.306"/>
	<path fill="#070809" d="M58.876,430.103c0,0,54.082,122.448,103.061,141.836v-13.265v-4.082c0,0,13.265,39.867,28.571,39.832
		v-15.343l12.245,20.407v-29.591l18.367,35.714v-21.428l12.245,21.428v-24.489l12.245,29.591l15.306-16.289v21.393l26.598-26.531
		l23.401,26.531l12.246-31.633l14.721,31.633l6.707-27.552l9.184,19.388l11.225-28.571l11.225,15.343v4.045l18.367-30.612
		l10.205,26.567l12.244-40.854L431.326,575l8.162-41.838l12.246,25.511l6.121-39.796l16.326,15.307l4.082-41.838l9.184,19.389
		L519.08,425l-19.387,19.387l-7.145,32.654l-3.061-25.511l-9.184,4.081l-13.266,52.041l-4.082-40.816L446.631,525l-4.082-29.592
		l-14.285,42.856l-11.225-43.878l-23.469,65.307l-10.205-56.123l-7.143,54.082l-10.203-60.204l-23.471,80.612l-14.285-67.347
		l-8.164,58.163l-15.305-53.061l-15.816,69.387l-16.837-72.449l-5.102,67.348l-14.286-67.348l-17.347,56.123l-17.347-48.469
		l-8.164,38.265c0,0-3.062-53.062-14.286-59.184l-6.122,63.265l-19.388-64.285l-17.347,56.123l-16.327-46.939l2.041,33.674
		l-18.368-47.959l-6.122,27.041l-27.551-56.633L58.876,430.103z"/>
	<path fill="#070909" d="M245.611,405.612c13.377-0.562,10.515,15.929,7.09,23.543c-4.732,10.522-12.114,16.396-22.6,21.128
		c-11.17,5.041-23.891,10.998-35.032,14.274c-11.185,3.289-26.158-2.318-35.89-5.144c-29.169-8.471-39.754-29.499-51.867-56.967
		c-7.37-16.714-13.911-66.385,17.656-63.158c26.569,2.716,52.47,22.571,75.955,33.952c13.473,6.529,62.169,25.08,51.831,45.637"/>
	<path fill="#070909" d="M376.223,460.713c-7.061,9.074-28.248-3.498-34.383-9.473c-9.766-9.506-20.883-22.734-17.682-37.792
		c2.438-11.463,15.869-14.046,25.357-18.545c9.316-4.418,21.248-10.424,30.367-16.256c20.875-13.351,43.494-54.311,74.482-42.14
		c23.232,9.125,21.932,50.659,12.221,68.674c-18.486,34.29-56.297,58.337-95.465,58.595"/>
</g>
</svg>
